<svg width="33" height="32" viewBox="0 0 33 32" fill="none" xmlns="http://www.w3.org/2000/svg">
<path d="M26.1667 11L16.1667 17.25L6.16669 11V8.5L16.1667 14.75L26.1667 8.5V11ZM26.1667 6H6.16669C4.77919 6 3.66669 7.1125 3.66669 8.5V23.5C3.66669 24.163 3.93008 24.7989 4.39892 25.2678C4.86776 25.7366 5.50365 26 6.16669 26H26.1667C26.8297 26 27.4656 25.7366 27.9345 25.2678C28.4033 24.7989 28.6667 24.163 28.6667 23.5V8.5C28.6667 7.83696 28.4033 7.20107 27.9345 6.73223C27.4656 6.26339 26.8297 6 26.1667 6Z" fill="#141414"/>
</svg>
